<?xml version="1.0" encoding="UTF-8"?>
<!DOCTYPE svg PUBLIC "-//W3C//DTD SVG 1.1//EN" "http://www.w3.org/Graphics/SVG/1.1/DTD/svg11.dtd">
<!-- Creator: CorelDRAW -->
<svg xmlns="http://www.w3.org/2000/svg" xml:space="preserve" width="342px" height="334px" version="1.1" style="shape-rendering:geometricPrecision; text-rendering:geometricPrecision; image-rendering:optimizeQuality; fill-rule:evenodd; clip-rule:evenodd"
viewBox="0 0 24.67 24.06"
 xmlns:xlink="http://www.w3.org/1999/xlink"
 xmlns:xodm="http://www.corel.com/coreldraw/odm/2003">
 <defs>
  <style type="text/css">
   <![CDATA[
    .fil0 {fill:#035AA6}
   ]]>
  </style>
 </defs>
 <g id="Camada_x0020_1">
  <metadata id="CorelCorpID_0Corel-Layer"/>
  <g id="_1939757015696">
   <path class="fil0" d="M5.67 8.44l-0.06 -0.42c-0.13,-1 -0.07,-1.17 -0.02,-2.12 0.02,-0.1 0.03,-0.22 0.06,-0.31 0.1,-0.24 0.05,-0.1 0.14,-0.18l0.06 -0.29c0.98,-0.17 2.4,0.61 3.04,1.03 0.27,0.18 0.28,0.26 0.66,0.16 1.76,-0.44 3.71,-0.46 5.47,-0.02 0.46,0.11 0.47,0.05 0.78,-0.15 0.74,-0.48 1.9,-1.11 3.02,-1.03 0.15,0.46 0.32,1.01 0.35,1.58 0.05,0.77 -0.16,1.12 -0.19,1.73 0.24,0.38 0.48,0.58 0.74,1.1 0.97,1.95 0.46,5.35 -1.1,6.72 -0.45,0.39 -1.44,1.06 -2.25,1.19 -0.05,0.03 0.01,0.03 -0.2,0.1 -0.1,0.03 -0.19,0.04 -0.28,0.05l-1.23 0.18c0.01,0.32 0.73,0.52 0.75,2.33 0.05,3.68 -0.55,4.64 1.93,3.52 3.36,-1.52 6.15,-4.45 7.08,-8.77 0.82,-3.82 -0.44,-7.68 -2.27,-9.98 -1.68,-2.12 -4.13,-4.13 -7.92,-4.71 -7.47,-1.15 -13.5,4.41 -14.16,10.86 -0.55,5.34 2.37,10.16 6.59,12.28 2.53,1.28 2.63,0.87 2.61,-0.6 0,-0.5 0,-1 -0.01,-1.5 -0.71,-0.04 -2.75,0.54 -3.85,-0.96 -0.34,-0.46 -0.52,-1.09 -0.9,-1.63 -0.56,-0.79 -1.22,-0.74 -1.21,-1.32 0.73,-0.47 1.67,0.26 1.99,0.61 0.53,0.56 1.39,2.58 3.74,1.66 0.33,-0.12 0.25,-0.07 0.33,-0.4 0.12,-0.46 0.34,-1.05 0.69,-1.34 -1.27,-0.36 -2.03,-0.27 -3.15,-0.95 -1.93,-1.19 -2.6,-3.34 -2.42,-5.62 0.1,-1.27 0.62,-2.07 1.19,-2.8z"/>
   <path class="fil0" d="M8.68 20.09c0.03,0.03 0.06,0.18 0.32,0.11 0.23,-0.07 0.13,-0.08 0.17,-0.25 -0.13,-0.09 -0.39,-0.28 -0.49,0.14z"/>
   <path class="fil0" d="M7.74 20.2c0.14,0.11 0.26,0.16 0.47,0.04 0,-0.21 0.05,-0.28 -0.22,-0.28 -0.23,0 -0.24,0.09 -0.25,0.24z"/>
   <path class="fil0" d="M6.77 19.88c0.02,0.38 0.38,0.36 0.46,0.18 0.08,-0.17 -0.19,-0.34 -0.46,-0.18z"/>
   <path class="fil0" d="M6.29 19.69c0.11,-0.31 -0.06,-0.44 -0.37,-0.38 -0.01,0.32 0.05,0.4 0.37,0.38z"/>
   <path class="fil0" d="M5.66 18.97c0.07,-0.28 -0.02,-0.4 -0.3,-0.37 -0.04,0.29 0.03,0.37 0.3,0.37z"/>
   <path class="fil0" d="M5.17 18.28c0.01,-0.27 -0.03,-0.3 -0.29,-0.34 0,0.28 0.03,0.31 0.29,0.34z"/>
   <path class="fil0" d="M4.63 17.58c-0.23,-0.05 -0.24,-0.11 -0.25,0.1l0.24 0.08 0.01 -0.18z"/>
   <path class="fil0" d="M5.67 8.44c0.06,-0.09 0.13,0.16 0.06,-0.2 -0.07,-0.35 -0.07,-0.14 -0.12,-0.22l0.06 0.42z"/>
   <path class="fil0" d="M5.59 5.9l0.11 -0.2c0.04,-0.09 0.06,-0.2 0.09,-0.29 -0.09,0.08 -0.04,-0.06 -0.14,0.18 -0.03,0.09 -0.04,0.21 -0.06,0.31z"/>
   <path class="fil0" d="M15.89 17.58c0.09,-0.01 0.18,-0.02 0.28,-0.05 0.21,-0.07 0.15,-0.07 0.2,-0.1 -0.03,0 -0.22,0.02 -0.26,0.03 -0.26,0.09 -0.15,0.07 -0.22,0.12z"/>
   <path class="fil0" d="M4.38 17.68c0.01,-0.21 0.02,-0.15 0.25,-0.1 -0.09,-0.09 0.08,-0.12 -0.24,-0.09 -0.18,0.34 -0.04,0.11 -0.01,0.19z"/>
  </g>
 </g>
</svg>
