<?xml version="1.0" encoding="UTF-8"?>
<!DOCTYPE svg PUBLIC "-//W3C//DTD SVG 1.1//EN" "http://www.w3.org/Graphics/SVG/1.1/DTD/svg11.dtd">
<!-- Creator: CorelDRAW -->
<svg xmlns="http://www.w3.org/2000/svg" xml:space="preserve" width="285px" height="286px" version="1.1" style="shape-rendering:geometricPrecision; text-rendering:geometricPrecision; image-rendering:optimizeQuality; fill-rule:evenodd; clip-rule:evenodd"
viewBox="0 0 17.32 17.42"
 xmlns:xlink="http://www.w3.org/1999/xlink"
 xmlns:xodm="http://www.corel.com/coreldraw/odm/2003">
 <defs>
  <style type="text/css">
   <![CDATA[
    .fil0 {fill:#035AA6}
   ]]>
  </style>
 </defs>
 <g id="Camada_x0020_1">
  <metadata id="CorelCorpID_0Corel-Layer"/>
  <g id="_1939849377248">
   <path class="fil0" d="M2.88 14.48c0.13,-0.65 0.56,-1.71 0.78,-2.35 0.24,-0.71 0.29,-0.51 -0.03,-1.15 -1.02,-2.03 -0.53,-4.38 0.65,-5.91 1.9,-2.45 6.02,-3.06 8.46,-0.52 0.56,0.58 0.93,0.97 1.27,1.83 1.01,2.55 0.2,5.11 -1.74,6.62 -1.17,0.91 -2.88,1.47 -4.78,1.06 -1.76,-0.39 -0.92,-0.75 -2.26,-0.31 -0.69,0.23 -1.64,0.58 -2.35,0.73zm14.39 -0.63c0.1,-0.93 0.02,-7.15 0.02,-8.64 0,-1.55 0.08,-2.44 -0.73,-3.57 -0.52,-0.71 -1.44,-1.45 -2.72,-1.59 -0.96,-0.1 -7.13,-0.02 -8.64,-0.02 -1.54,0 -2.51,-0.04 -3.58,0.74 -0.72,0.53 -1.45,1.44 -1.57,2.74 -0.1,1.03 -0.02,7.12 -0.02,8.7 0,1.49 -0.06,2.54 0.74,3.58 0.57,0.73 1.4,1.44 2.73,1.57 1.02,0.11 7.09,0.03 8.64,0.03 1.52,0 2.52,0.03 3.57,-0.76 0.73,-0.54 1.43,-1.46 1.56,-2.78z"/>
   <path class="fil0" d="M11.63 9.8c0.14,0.82 -0.56,1.36 -1.32,1.37 -2.12,0 -5.46,-3.45 -3.97,-4.95 0.16,-0.16 0.71,-0.43 0.99,-0.22 0.11,0.08 0.36,0.8 0.43,0.97 0.26,0.6 0.04,0.52 -0.21,0.89 -0.41,0.62 1.45,2.04 1.97,1.98 0.3,-0.03 0.46,-0.43 0.67,-0.66 0.32,-0.01 1.2,0.45 1.44,0.62zm-7.3 3.26c0.47,-0.1 1.58,-0.64 1.94,-0.47 0.66,0.32 0.97,0.54 1.85,0.66 2.75,0.38 5.31,-1.68 5.41,-4.57 0.16,-4.56 -5.81,-6.54 -8.46,-3.12 -0.75,0.97 -1.32,2.27 -1,3.89 0.17,0.88 0.4,1.1 0.74,1.75 0.17,0.32 -0.37,1.4 -0.48,1.86z"/>
  </g>
 </g>
</svg>
