<?xml version="1.0" encoding="UTF-8"?>
<!DOCTYPE svg PUBLIC "-//W3C//DTD SVG 1.1//EN" "http://www.w3.org/Graphics/SVG/1.1/DTD/svg11.dtd">
<!-- Creator: CorelDRAW -->
<svg xmlns="http://www.w3.org/2000/svg" xml:space="preserve" width="262px" height="262px" version="1.1" style="shape-rendering:geometricPrecision; text-rendering:geometricPrecision; image-rendering:optimizeQuality; fill-rule:evenodd; clip-rule:evenodd"
viewBox="0 0 14.61 14.61"
 xmlns:xlink="http://www.w3.org/1999/xlink"
 xmlns:xodm="http://www.corel.com/coreldraw/odm/2003">
 <defs>
  <style type="text/css">
   <![CDATA[
    .fil0 {fill:#035AA6}
   ]]>
  </style>
 </defs>
 <g id="Camada_x0020_1">
  <metadata id="CorelCorpID_0Corel-Layer"/>
  <path class="fil0" d="M2.11 12.5l0 -6.59c0,-0.41 0.14,-0.55 0.54,-0.55l1.37 0c0.28,0 0.49,0.12 0.49,0.4l0 6.88c0,0.17 -0.17,0.34 -0.35,0.34l-1.71 0c-0.23,0 -0.34,-0.25 -0.34,-0.48zm5.56 0.48l-1.74 0c-0.16,0 -0.31,-0.15 -0.31,-0.31l0 -7.02c0,-0.16 0.21,-0.29 0.46,-0.29l1.45 0c0.59,0 0.46,0.42 0.46,0.94 0.08,-0.02 0.13,-0.13 0.29,-0.3l0.33 -0.3c0.85,-0.57 2.22,-0.56 3.02,-0.16 0.15,0.08 0.26,0.14 0.39,0.24 0.95,0.79 1.05,2.08 1.05,3.35l0 3.48c0,0.19 -0.14,0.37 -0.32,0.37l-1.82 0c-0.34,0 -0.32,-0.44 -0.32,-0.6l0 -2.74c0,-0.82 0.08,-1.7 -0.58,-2.15 -0.48,-0.33 -1.43,-0.25 -1.81,0.56 -0.22,0.49 -0.23,0.9 -0.23,1.59 0,0.22 0.04,3.03 -0.03,3.17 -0.05,0.08 -0.16,0.17 -0.29,0.17zm-5.9 -9.78c0,-0.88 0.68,-1.57 1.48,-1.57 0.58,0 1,0.2 1.3,0.61 0.05,0.06 0.11,0.15 0.15,0.22 0.21,0.42 0.21,0.99 0,1.41 -0.44,0.89 -1.72,1.15 -2.48,0.39 -0.23,-0.22 -0.45,-0.63 -0.45,-1.06zm-1.77 -1.97l0 12.15c0,0.4 0.24,0.74 0.54,0.97 0.16,0.14 0.46,0.26 0.69,0.26l12.15 0c0.22,0 0.51,-0.12 0.67,-0.24 0.3,-0.23 0.56,-0.59 0.56,-0.99l0 -12.15c0,-0.61 -0.62,-1.23 -1.23,-1.23l-12.15 0c-0.16,0 -0.36,0.07 -0.48,0.12 -0.08,0.04 -0.13,0.07 -0.2,0.12 -0.18,0.14 -0.31,0.28 -0.42,0.49 -0.06,0.12 -0.13,0.33 -0.13,0.5z"/>
 </g>
</svg>
